<?xml version="1.0" encoding="utf-8"?>
<!-- Generator: Adobe Illustrator 16.0.0, SVG Export Plug-In . SVG Version: 6.00 Build 0)  -->
<!DOCTYPE svg PUBLIC "-//W3C//DTD SVG 1.1//EN" "http://www.w3.org/Graphics/SVG/1.1/DTD/svg11.dtd">
<svg version="1.1" id="图形" xmlns="http://www.w3.org/2000/svg" xmlns:xlink="http://www.w3.org/1999/xlink" x="0px" y="0px"
	 width="1000.637px" height="1000.678px" viewBox="15.167 -16.333 1000.637 1000.678"
	 enable-background="new 15.167 -16.333 1000.637 1000.678" xml:space="preserve">
<g>
	<path fill="#00A0E9" d="M140.148,430.872c0,0-0.011,111.658,0,113.822c-0.057,3.383-3.541,17.893-23.631,20.205H77.555v22.006
		h51.049c0,0,33.009-3.246,34.994-38.781V430.873L140.148,430.872L140.148,430.872z"/>
	<path fill="#00A0E9" d="M196.247,476.508c0,0-0.048,59.573,0,62.597c1.624,8.025,9.378,22.098,23.63,23.445
		c12.447,0,38.603,0,38.603,0v-86.042h24.171v111.661c0,0-61.171,0.047-65.659,0c-6.247,0.291-42.166-9.246-44.555-45.639
		c0-9.064,0-66.023,0-66.023L196.247,476.508L196.247,476.508z"/>
	<path fill="#00A0E9" d="M319.268,500.32h79.73v-23.813c0,0-82.593,0.025-87.666,0c-5.051-0.09-21.827,7.938-22.368,25.075
		c0,0-0.012,15.029,0,18.396c-0.315,5.551,6.878,22.854,25.434,23.814c10.7,0,52.155-0.021,54.477,0
		c9.661,0.697,11.364,18.984-0.181,21.26c-4.668,0-77.588,0-77.588,0v23.814c0,0,78.061,0.063,82.188,0
		c8.185,0.027,23.811-9.842,23.743-21.781c0.008-10.35,0.022-19.414,0-25.77c0.542-5.412-4.701-20.326-19.684-21.719
		c0,0-53.889,0.066-58.354,0.023C312.753,519.532,306.97,504.378,319.268,500.32z"/>
	<path fill="#00A0E9" d="M440.038,415.809c0,0-18.854,3.974-34.904,20.563l0.225,131.59c0,0,0.812,18.129,27.057,20.902h74.679
		v-28.613l-60.879,0.135c0,0-5.687-1.482-5.953-8.115l-0.135-52.084l66.967-0.139v-25.84h-66.832L440.038,415.809z"/>
	<path fill="#00A0E9" d="M546.056,588.866c0,0,0.164-172.865,0.135-175.402c0.27-2.438,1.624-8.521,9.335-8.521s38.562,0,38.562,0
		s7.542,0.102,8.118,7.571c0,3.078,0.028,108.605,0,110.805c-0.034,2.195-1.223,7.848-8.523,9.063l-41.196,0.203l0.068,23.744
		h63.854c0,0,12.719-0.271,14.202-15.289V401.561c0,0,1.624-19.348-19.21-22.459c0,0-69.896-0.091-74.271,0
		c-8.612,0.185-22.256,3.111-23.541,17.186c0,12.92,0,192.583,0,192.583L546.056,588.866L546.056,588.866z"/>
	<path fill="#00A0E9" d="M636.744,588.866h23.723c0,0-0.044-59.709,0-65.102c-0.091-7.277,7.306-22.459,23.721-23.445
		c3.99,0,29.854,0,29.854,0v-23.901c0,0-26.358-0.021-38.962,0c-17.545,0.36-38.854,20.249-38.334,43.024
		C636.744,540.837,636.744,588.866,636.744,588.866z"/>
	<rect x="722.967" y="478.854" fill="#00A0E9" width="28.141" height="110.013"/>
	<path fill="#00A0E9" d="M759.047,588.866h24.305c0,0-0.203-63.449,0-67.035c0.317-7.891,8.253-20.293,21.783-20.293
		c0,0,14.88-0.135,17.586,0c6.675,0.045,21.984,5.75,23.134,20.428v66.9h24.354c0,0,0.399-47.238,0-72.717
		c-0.403-25.481-22.054-38.83-37.339-39.731c-6.262-0.015-29.633-0.09-37.204,0c-15.491,0.36-36.616,16.938-36.527,42.03
		L759.047,588.866z"/>
	<path fill="#00A0E9" d="M902.135,431.051v45.367h38.692v23.63h-38.692v39.91c0,0,2.028,18.535,20.699,22.594h28.58v26.121
		c0,0-27.599-0.229-29.692,0.025c-8.745-0.15-44.706-8.109-45.427-40.896V431.051H902.135L902.135,431.051z"/>
	<circle fill="#00A0E9" cx="737.038" cy="446.384" r="15.333"/>
	<path fill="#A5BC3A" d="M507.094,404.942v-27.823h-70.665c0,0-26.922,1.804-30.846,29.493l-0.451,13.709
		c0,0,17.768-13.802,30.575-15.333L507.094,404.942z"/>
</g>
</svg>
