<?xml version="1.0" encoding="utf-8"?>
<!-- Generator: Adobe Illustrator 16.0.0, SVG Export Plug-In . SVG Version: 6.00 Build 0)  -->
<!DOCTYPE svg PUBLIC "-//W3C//DTD SVG 1.1//EN" "http://www.w3.org/Graphics/SVG/1.1/DTD/svg11.dtd">
<svg version="1.1" id="图层_1" xmlns="http://www.w3.org/2000/svg" xmlns:xlink="http://www.w3.org/1999/xlink" x="0px" y="0px"
	 width="256px" height="256px" viewBox="0 0 256 256" enable-background="new 0 0 256 256" xml:space="preserve">
<path fill="#00A0E9" d="M237.526,112.318c0-60.108-47.688-108.835-106.513-108.835C72.188,3.483,24.5,52.21,24.5,112.318
	c0,52.879,36.908,96.941,85.836,106.779l-0.011,0.002c0,0,6.394,1.115,16.356,25.549c0,0,5.63,11.305,9.797,0
	c0,0,3.267-22.592,20.487-26.748l-0.018-0.002C203.238,206.064,237.526,163.287,237.526,112.318z"/>
<path fill="#FFFFFF" d="M226.255,117.398c0-52.719-42.845-95.455-95.696-95.455c-52.853,0-95.697,42.736-95.697,95.455
	c0,46.377,33.16,85.023,77.12,93.652l-0.01,0.002c0,0,5.744,0.977,14.696,22.406c0,0,5.058,9.916,8.802,0
	c0,0,2.935-19.813,18.407-23.459l-0.016-0.002C195.449,199.619,226.255,162.102,226.255,117.398z"/>
<path fill="#00A0E9" d="M84.951,150.955v20.125c0,0,0,1.5,2,1.875h6.125v6c0,0,5.125,5.125,11.125,0v-5.875h54.125v6
	c0,0,5,5.25,11,0v-6.125h6c0,0,1.75-0.625,1.75-1.625v-20.375H84.951z"/>
<path fill="#00A0E9" d="M84.951,143.998h92.125v-20.501c0,0-0.125-1.373-1.708-1.479H87.451c0,0-1.75-0.188-2.5,1.479V143.998z"/>
<path fill="#00A0E9" d="M86.993,63.997c0,0-1.625,0.209-1.833,1.75v21.041c0,0,0.375,1.292,1.833,1.292h49.333v25.583
	c0,0,0.292,1.167,1.375,1.417h38.042c0,0,1.333-0.459,1.333-1.959V65.955c0,0-0.291-1.832-2.041-1.958H86.993z"/>
<path fill="#00A0E9" d="M86.451,97.018c0,0-0.771-0.125-1.292,1v8.813c0,0,0.229,1.063,1.292,1.063h43.5
	c0,0,1.184-0.375,1.279-1.125l-0.111-8.438c0,0,0.145-0.633-1.043-1.316L86.451,97.018z"/>
<path fill="#00A0E9" d="M91.951,54.08c0,0-2.083,4.666,2.417,6.833c0,0,4.5,0.166,9.583-1.25l65.333-13.833
	c0,0,3.084-4.333-1.5-7.083c0,0-0.75-0.666-4.167,0C163.617,38.747,92.421,51.999,91.951,54.08z"/>
<path fill="#FFFFFF" d="M137.7,132.018c0,1.484-1.203,2.688-2.688,2.688h-10.5c-1.484,0-2.688-1.203-2.688-2.688l0,0
	c0-1.484,1.203-2.688,2.688-2.688h10.5C136.497,129.33,137.7,130.533,137.7,132.018L137.7,132.018z"/>
<path fill="#FFFFFF" d="M137.7,161.83c0,1.484-1.203,2.688-2.688,2.688h-10.5c-1.484,0-2.688-1.203-2.688-2.688l0,0
	c0-1.484,1.203-2.688,2.688-2.688h10.5C136.497,159.143,137.7,160.346,137.7,161.83L137.7,161.83z"/>
</svg>
